<svg width="370" height="336" viewBox="0 0 370 336" fill="none" xmlns="http://www.w3.org/2000/svg">
<path d="M75.4579 105.514C75.7278 96.3432 78.0108 82.5408 81.5101 69.1171C85.2447 54.791 90.3378 41.0024 95.7797 33.758L95.7843 33.7518L95.7888 33.7455C109.304 14.5424 130.634 7.77081 147.873 5.68447L148.313 5.63123V5.18809V1V0.5H147.813H1H0.5V1V5.18809V5.62817L0.936516 5.68404C21.2885 8.28918 37.3959 15.5679 49.353 32.6969L49.3529 32.6969L49.3563 32.7016C54.5381 39.9447 59.3709 53.9942 62.9097 68.5853C66.4446 83.1604 68.6632 98.1678 68.6632 107.273V107.773H68.6771V168V168.5H69.1771H74.9579H75.4579V168V105.604V105.514ZM273.365 318.688L273.367 318.687C310.298 298.67 326.586 259.183 326.586 206.216V65.9154C326.586 44.2086 329.473 30.3444 336.059 21.319C342.626 12.3193 352.949 8.03106 368.109 5.6822L368.533 5.61659V5.18809V1V0.5H368.033H190.284H189.784V1V5.18809V5.61045L190.201 5.68106C204.068 8.03228 214.261 11.6709 221.022 20.35C227.797 29.0467 231.206 42.9061 231.206 65.9154V220.875C231.206 242.05 228.979 258.333 223.577 271.266C218.182 284.181 209.607 293.787 196.842 301.591C178.606 312.515 147.265 318.264 120.09 314.611L119.524 314.535V315.107V318.771V319.046L119.755 319.193C125.599 322.906 153.481 335.5 188.711 335.5C223.361 335.5 252.816 329.736 273.365 318.688Z" stroke="white"/>
<path d="M102.5 238.772V238.272H102H75.538V212V211.5H75.038H68.962H68.462V212V238.272H42H41.5V238.772V244.848V245.348H42H68.462V272V272.5H68.962H75.038H75.538V272V245.348H102H102.5V244.848V238.772Z" stroke="white"/>
</svg>
