<svg viewBox="0 0 568 568" fill="none" xmlns="http://www.w3.org/2000/svg">
    <path d="M227.81 197.516C228.692 197.555 229.572 197.391 230.382 197.037C231.192 196.684 231.911 196.149 232.483 195.473C241.925 185.222 252.835 176.439 264.854 169.412C266.06 168.7 267 167.61 267.528 166.309C268.056 165.008 268.144 163.57 267.777 162.214C267.411 160.859 266.611 159.662 265.5 158.807C264.39 157.952 263.03 157.488 261.631 157.484H154.071V151.412C154.072 150.254 153.761 149.117 153.169 148.123C152.578 147.129 151.729 146.314 150.713 145.765C149.697 145.216 148.551 144.954 147.399 145.007C146.246 145.059 145.129 145.424 144.166 146.062L112.75 166.801C110.983 167.967 109.533 169.555 108.529 171.422C107.525 173.29 107 175.378 107 177.5C107 179.622 107.525 181.71 108.529 183.578C109.533 185.445 110.983 187.033 112.75 188.199L144.184 208.938C145.147 209.576 146.264 209.941 147.417 209.993C148.569 210.046 149.715 209.784 150.731 209.235C151.747 208.686 152.596 207.871 153.187 206.877C153.779 205.883 154.09 204.746 154.089 203.588V197.516H227.81Z" stroke="white" stroke-width="12" stroke-linecap="round" stroke-linejoin="round"/>
    <path d="M283.96 567.42C440.511 567.42 567.42 440.511 567.42 283.96C567.42 127.409 440.511 0.5 283.96 0.5C127.409 0.5 0.5 127.409 0.5 283.96C0.5 440.511 127.409 567.42 283.96 567.42Z" stroke="white" stroke-width="12" stroke-linecap="round" stroke-linejoin="round"/>
    <path d="M241 416.152V401.635C241 398.224 242.352 394.953 244.76 392.541C247.168 390.128 250.433 388.771 253.839 388.769H337.337C361.688 388.774 385.121 379.465 402.845 362.744C420.57 346.023 431.246 323.154 432.691 298.813C434.137 274.471 426.242 250.497 410.621 231.79C395.001 213.084 372.834 201.06 348.654 198.175C345.533 197.8 342.659 196.293 340.573 193.939C338.488 191.585 337.336 188.547 337.337 185.4V170.865C337.335 169.062 337.713 167.278 338.445 165.631C339.177 163.984 340.247 162.509 341.585 161.302C342.923 160.096 344.5 159.185 346.212 158.628C347.925 158.071 349.735 157.882 351.526 158.071C386.085 161.708 417.932 178.487 440.5 204.946C463.067 231.406 474.634 265.529 472.814 300.278C470.994 335.026 455.926 367.751 430.719 391.701C405.511 415.652 372.086 429.003 337.337 429H253.839C250.436 429 247.171 427.647 244.764 425.238C242.356 422.828 241.002 419.56 241 416.152V416.152Z" stroke="white" stroke-width="12" stroke-linecap="round" stroke-linejoin="round"/>
</svg>
