<svg viewBox="0 0 568 568" fill="none" xmlns="http://www.w3.org/2000/svg">
    <path d="M283.96 567.42C440.511 567.42 567.42 440.511 567.42 283.96C567.42 127.409 440.511 0.5 283.96 0.5C127.409 0.5 0.5 127.409 0.5 283.96C0.5 440.511 127.409 567.42 283.96 567.42Z" stroke="white" stroke-width="12" stroke-linecap="round" stroke-linejoin="round"/>
    <path d="M271.371 345.359C271.444 346.27 271.242 347.181 270.791 347.976C270.34 348.77 269.661 349.411 268.842 349.815C262.984 353.328 258.441 358.664 255.906 365.005C253.371 371.347 252.986 378.344 254.809 384.926C256.632 391.508 260.562 397.31 265.998 401.445C271.434 405.58 278.075 407.818 284.905 407.818C291.735 407.818 298.377 405.58 303.813 401.445C309.249 397.31 313.179 391.508 315.002 384.926C316.824 378.344 316.439 371.347 313.905 365.005C311.37 358.664 306.826 353.328 300.969 349.815C300.151 349.409 299.473 348.768 299.022 347.974C298.571 347.18 298.368 346.269 298.439 345.359V241.163C298.443 240.135 298.751 239.131 299.324 238.278C299.897 237.424 300.71 236.759 301.66 236.366C302.61 235.974 303.655 235.87 304.664 236.07C305.672 236.269 306.599 236.763 307.328 237.488L344.101 274.256C344.797 274.849 345.3 275.636 345.544 276.516C345.788 277.397 345.763 278.33 345.472 279.197C343.812 285.821 344.37 292.808 347.06 299.085C349.751 305.363 354.425 310.585 360.368 313.952C366.31 317.32 373.193 318.646 379.961 317.728C386.73 316.811 393.01 313.699 397.841 308.871C402.672 304.043 405.787 297.765 406.709 290.998C407.63 284.231 406.307 277.348 402.942 271.404C399.578 265.461 394.357 260.784 388.081 258.091C381.804 255.397 374.817 254.836 368.191 256.492C367.322 256.781 366.388 256.805 365.506 256.561C364.624 256.317 363.834 255.816 363.238 255.121L316.572 208.46C315.877 207.864 315.376 207.075 315.132 206.193C314.888 205.311 314.912 204.376 315.201 203.508C316.495 198.285 316.418 192.815 314.976 187.63C313.534 182.446 310.777 177.721 306.971 173.916C303.165 170.111 298.441 167.354 293.255 165.912C288.07 164.47 282.6 164.393 277.376 165.687C276.508 165.978 275.572 166.003 274.69 165.758C273.808 165.514 273.018 165.012 272.423 164.316L227.258 119.133C226.283 118.155 225.735 116.831 225.735 115.451C225.735 114.071 226.283 112.747 227.258 111.769C238.81 100.234 250.355 88.6909 261.891 77.1398C267.751 71.2873 275.695 68 283.977 68C292.26 68 300.204 71.2873 306.064 77.1398L490.849 261.894C493.75 264.793 496.052 268.236 497.622 272.025C499.192 275.815 500 279.876 500 283.977C500 288.079 499.192 292.14 497.622 295.929C496.052 299.719 493.75 303.161 490.849 306.061L306.04 490.85C303.14 493.751 299.697 496.052 295.907 497.622C292.117 499.192 288.056 500 283.954 500C279.852 500 275.79 499.192 272 497.622C268.211 496.052 264.768 493.751 261.868 490.85L77.1408 306.061C71.2877 300.202 68 292.259 68 283.977C68 275.696 71.2877 267.753 77.1408 261.894C118.362 220.693 159.575 179.484 200.781 138.267C201.758 137.292 203.082 136.745 204.463 136.745C205.843 136.745 207.167 137.292 208.145 138.267L253.262 183.404C253.959 183.998 254.463 184.787 254.707 185.67C254.951 186.553 254.926 187.488 254.634 188.356C253.006 194.847 253.505 201.689 256.059 207.874C258.612 214.059 263.085 219.261 268.818 222.714C269.639 223.119 270.32 223.761 270.771 224.558C271.222 225.355 271.423 226.269 271.347 227.181L271.371 345.359Z" stroke="white" stroke-width="12" stroke-linecap="round" stroke-linejoin="round"/>
</svg>
