<svg viewBox="0 0 568 568" fill="none" xmlns="http://www.w3.org/2000/svg">
    <path d="M468.61 110C465.43 110 453.66 114.86 448.5 117C445.12 118.4 441 121.14 432.76 126.62C422.29 133.62 415.18 139.28 413.53 140.62C413.53 140.62 409.69 142.93 400.41 151.99C399.773 152.576 399.318 153.333 399.1 154.17C398.62 156.17 399.96 158.09 400.85 159.42C402.905 162.451 404.663 165.672 406.1 169.04C407.02 171.49 408.36 175.04 406.97 178.65C405.58 182.26 401.9 184.24 400.85 184.77C397.02 186.77 395.33 185.39 392.98 187.4C391.899 188.373 391.09 189.61 390.631 190.989C390.172 192.369 390.078 193.844 390.36 195.27C391.05 198.51 393.79 200.27 395.6 201.39C397.75 202.71 399.46 203.15 412.22 204.88C418.93 205.79 420.62 205.97 422.71 207.51C424.39 208.75 425.32 210.12 427.08 210.13C429.17 210.13 429.7 208.24 432.33 206.63C435.11 204.93 438.02 204.91 443.69 204.88C448.24 204.88 450.18 205.49 451.56 204.01C452.56 202.96 452.56 201.6 454.19 200.51C454.969 199.99 455.874 199.689 456.81 199.64C460.27 199.58 464.14 204.4 462.93 207.51C462.603 208.198 462.114 208.796 461.504 209.253C460.894 209.709 460.182 210.01 459.43 210.13C456.73 210.6 455.56 208.26 452.43 208.38C450.839 208.546 449.325 209.152 448.06 210.13C445.73 211.57 445.01 212.9 441.94 216.25C439.52 218.89 438.31 220.25 437.56 220.62C433.69 222.75 428.42 219.62 423.56 217.13C415.29 212.9 403.89 207.13 392.96 208.38C390.52 208.67 383.96 209.45 379.85 214.5C375.58 219.73 376.06 226.88 376.35 231.11C376.7 236.36 377.85 236.2 378.97 243.36C379.86 249.02 379.21 249.49 379.85 260.84C380.5 272.54 381.17 271.49 380.72 274.84C379.82 281.54 377.29 284.84 378.97 289.71C379.717 291.703 380.915 293.496 382.47 294.95C396.15 309.06 403.47 312.41 409.57 322.06C412.43 326.54 412.18 327.9 415.69 332.55C418.798 336.684 422.316 340.493 426.19 343.92C429.79 346.92 432.36 348.39 433.19 351.79C433.24 351.99 434.1 355.72 432.32 357.03C430.23 358.57 425.96 355.71 425.32 355.28C421.32 352.58 421.03 349.68 417.45 344.79C414.2 340.34 413.1 340.95 408.71 336.05C403.92 330.7 403.53 328.05 399.97 322.93C395.29 316.18 393.63 317.34 383.35 307.19C374.92 298.87 370.55 294.44 368.49 287.08C367.76 284.48 366.26 278.85 368.49 273.08C369.69 269.98 370.66 270.23 371.99 266.96C373.035 264.289 373.498 261.425 373.346 258.56C373.194 255.695 372.432 252.896 371.11 250.35C370.11 248.43 368.53 245.43 365.87 245.1C363.87 244.86 361.95 246.1 359.75 248.6C353.89 255.14 353.52 261.93 351 268.71C349.38 273.09 345.84 277.46 338.76 286.2C331.379 295.658 322.865 304.175 313.41 311.56C309.3 314.71 311.86 312.36 290.67 326.42C264.42 343.84 270.05 341.11 269.67 341.28C269.67 341.28 261.67 345.19 257.43 351.78C257.067 352.322 256.771 352.906 256.55 353.52C255.42 356.72 257.13 358.36 256.55 360.52C255.55 364.39 248.24 365.69 247.81 365.77C244.28 366.36 242.74 365.3 240.81 366.64C238.65 368.14 238.31 371.07 238.19 371.89C237.02 379.82 226.64 391.49 214.58 418.23C205.36 438.67 201.11 454.75 195.35 460.23C191.88 463.51 189.53 467.81 186.6 471.59C186.179 472.098 185.881 472.697 185.73 473.34C185.31 475.34 186.87 476.34 186.6 477.71C186.29 479.4 183.72 479.52 181.36 481.21C178.73 483.09 177.91 485.78 176.99 488.21C173.41 497.56 167.65 504.21 160.37 512.7C158.61 514.7 156.17 517.39 153.37 517.07C151.86 516.89 150.15 515.84 149.87 514.45C149.51 512.63 151.68 510.79 152.49 510.07C157.63 505.53 155.36 503.99 163.86 493.46C171.05 484.56 175.14 482.61 175.23 477.72C175.115 475.93 175.413 474.137 176.1 472.48C177 470.48 178.18 469.67 180.47 467.23L184.85 461.98C192.42 452.88 200.58 431.38 200.58 431.38C204.9 420.01 210.29 405.82 220.69 391.16C228.1 380.73 235.55 373.59 235.56 363.16C235.56 361.16 235.29 357.79 237.31 354.42C240.16 349.64 245.37 348.6 250.42 346.55C254.09 345.06 258.99 341.18 268.78 333.43C281.02 323.75 282.89 319.85 305.51 298.43C317.83 286.78 320.01 285.35 322.99 284.43C326.291 283.419 329.295 281.617 331.74 279.18C333.79 277.09 334.4 275.43 334.36 273.94C334.32 272.45 333.74 270.74 332.61 270.44C331.05 270.03 329.1 272.8 328.24 273.94C323.51 280.19 316.24 283.87 302.88 290.55C296.94 293.55 296.1 293.32 292.39 295.8C286.5 299.73 285.01 302.69 281.02 306.29C273.44 313.14 264.83 315.1 257.42 316.78C249.42 318.61 238.42 321.09 234.68 315.91C232.59 313.02 233.16 308.4 234.68 305.41C237.1 300.69 241.26 301.36 245.18 296.67C248.47 292.73 246.82 290.67 249.55 283.56C252.43 276 254.92 276.56 261.79 265.19C267.97 254.97 266.02 254.4 269.66 251.19C274.3 247.11 279.44 246.28 284.52 239.82C285.87 238.11 286.81 236.51 286.27 235.45C285.37 233.68 280.83 234.35 279.27 234.57C263.78 236.75 232.2 237.91 226.8 238.07C208.52 238.61 199.38 238.88 195.33 238.07C192.753 237.37 190.037 237.37 187.46 238.07C184.58 238.95 184.1 240.27 181.34 240.69C178.58 241.11 177.54 239.98 174.34 239.82C171.615 239.776 168.919 240.375 166.47 241.57C159.98 244.24 157.72 249.4 151.61 255.57C148.73 258.47 149.91 256.63 133.25 268.68C125.08 274.59 120.99 277.54 119.25 279.17C113.6 284.48 112.14 287.48 107.01 289.67C104.25 290.84 101.38 291.03 95.6399 291.42C90.6399 291.75 91.7299 291.19 74.6399 289.67C72.6399 289.49 69.7399 289.24 69.3899 287.92C69.1599 287.04 70.1099 285.92 71.1399 285.29C73.4999 283.98 76.0799 285.91 79.8799 287.04C84.1672 288.267 88.7127 288.267 92.9999 287.04C97.3299 285.75 97.4199 283.94 104.37 280.04C109.37 277.21 109.82 277.92 113.98 275.67C121.34 271.67 121.98 268.44 129.72 262.55C137.06 256.99 137.17 259.37 142.84 254.68C146.23 251.87 150.05 246.98 157.7 237.2C161.79 231.96 163.64 229.39 167.32 228.45C170.32 227.67 172.22 228.64 176.94 229.33C181.94 230.06 184.77 229.68 191.8 229.33C212.1 228.33 216.54 230.11 229.4 228.45C247.31 226.14 243.55 222.02 256.5 221.45C273.71 220.7 284.15 227.81 298.5 221.45C300.643 220.474 302.692 219.302 304.62 217.95C308.47 215.11 309.82 212.71 313.37 208.33C318.42 202.09 318.66 203.33 324.73 196.09C329.79 190.09 329.3 189.61 332.6 186.47C335.799 183.471 339.316 180.832 343.09 178.6C347.85 175.93 350.26 175.6 352.71 172.48C354.23 170.782 355.151 168.632 355.33 166.36C355.41 163.73 353.93 161.36 350.96 156.74C348.54 152.98 347.35 151.89 347.47 149.74C347.56 147.94 348.57 145.74 350.09 145.37C351.99 144.95 354.39 147.62 357.09 150.61C358.81 152.53 359.72 153.92 361.47 154.11C361.56 154.11 363.32 154.29 364.09 153.24C364.86 152.19 364.04 149.98 363.21 148.87C362 147.24 360.95 147.57 359.72 146.24C358.22 144.62 357.11 141.24 358.84 139.24C360.57 137.24 364.31 137.59 365.84 139.24C366.6 140.07 366.65 141.84 366.71 145.36C366.71 147.18 366.71 147.96 366.71 150.6C366.76 154.33 366.93 155.16 367.59 155.85C368.49 156.8 370.19 157.35 371.08 156.72C372.27 155.9 370.92 153.79 371.96 150.6C372.15 150.03 373.17 146.89 375.45 146.23C377.5 145.64 378.45 147.66 381.58 147.98C384.01 148.23 387.16 147.41 388.58 145.36C389.88 143.47 389.08 141.43 388.58 137.49C388.04 133.23 388.58 132.59 388.58 126.12C388.58 117.44 387.58 113.49 386.83 102.51C386.05 90.76 385.97 76.56 385.96 74.51C385.771 69.227 385.186 63.9656 384.21 58.77C383.52 54.84 382.87 53.43 382.46 52.65C381.46 50.7 380.35 49.65 380.71 49.15C381.07 48.65 383.48 48.92 385.08 50.02C388.02 52.02 388.36 56.26 388.58 58.77C390.27 78.33 390.94 67.82 391.2 83.25C391.38 93.67 390.97 92.05 391.2 98.99C391.61 111.17 392.72 111.25 392.95 122.6C393.17 133.51 393.28 138.97 392.95 140.08C392.62 141.19 391.46 144.73 392.95 147.95C393.23 148.56 394.05 150.33 395.57 150.57C397.57 150.89 399.41 147.89 399.95 147.08C404.87 139.65 417.95 130.24 426.18 124.34C435.18 117.89 434.52 120.87 448.91 112.1C448.91 112.1 451.77 110.36 465.52 105.98C466.68 105.61 468.87 104.98 469.89 105.98C470.296 106.473 470.519 107.091 470.519 107.73C470.519 108.369 470.296 108.987 469.89 109.48C469.543 109.807 469.087 109.992 468.61 110Z" stroke="white" stroke-width="12" stroke-miterlimit="10"/>
    <path d="M283.96 567.42C440.511 567.42 567.42 440.511 567.42 283.96C567.42 127.409 440.511 0.5 283.96 0.5C127.409 0.5 0.5 127.409 0.5 283.96C0.5 440.511 127.409 567.42 283.96 567.42Z" stroke="white" stroke-width="12" stroke-miterlimit="10"/>
</svg>
