<svg viewBox="0 0 568 568" fill="none" xmlns="http://www.w3.org/2000/svg">
    <path d="M452.82 184.09C447.74 189.157 440.813 191.693 432.04 191.7C423.267 191.707 416.337 189.163 411.25 184.07C406.163 178.983 403.62 172.053 403.62 163.28C403.62 154.8 406.307 147.873 411.68 142.5C417.053 137.127 423.983 134.44 432.47 134.44C440.957 134.44 447.743 137.127 452.83 142.5C457.917 147.873 460.46 154.8 460.46 163.28C460.46 172.053 457.913 178.99 452.82 184.09Z" stroke="white" stroke-width="12" stroke-linecap="round" stroke-linejoin="round"/>
    <path d="M404.89 429.66V230.32C404.89 228.053 406.017 226.917 408.27 226.91H455.37C457.637 226.91 458.77 228.047 458.77 230.32V430.11C458.77 432.363 457.637 433.49 455.37 433.49H408.72C406.173 433.49 404.897 432.213 404.89 429.66Z" stroke="white" stroke-width="12" stroke-linecap="round" stroke-linejoin="round"/>
    <path d="M195.58 314.73H271.92C270.8 310.73 264.937 292.693 254.33 260.62C243.723 228.547 236.723 206.547 233.33 194.62H232.89C229.51 209.08 217.073 249.117 195.58 314.73Z" stroke="white" stroke-width="12" stroke-linecap="round" stroke-linejoin="round"/>
    <path d="M283 355.87H184.6L160 430.11C159.7 432.363 158.14 433.49 155.32 433.49H110.75C107.91 433.49 106.91 432.07 107.75 429.25L196 177.3C198 173.053 199.273 165.13 199.82 153.53C199.82 151.83 200.82 150.98 202.82 150.98H263.9C264.609 150.986 265.303 151.189 265.905 151.565C266.507 151.94 266.993 152.475 267.31 153.11L365.71 429.66C366.557 432.207 365.707 433.483 363.16 433.49H313.06C312.125 433.511 311.208 433.23 310.445 432.69C309.681 432.15 309.112 431.379 308.82 430.49L283 355.87Z" stroke="white" stroke-width="12" stroke-linecap="round" stroke-linejoin="round"/>
    <path d="M283.96 567.42C440.511 567.42 567.42 440.511 567.42 283.96C567.42 127.409 440.511 0.5 283.96 0.5C127.409 0.5 0.5 127.409 0.5 283.96C0.5 440.511 127.409 567.42 283.96 567.42Z" stroke="white" stroke-width="12" stroke-linecap="round" stroke-linejoin="round"/>
</svg>
