<svg viewBox="0 0 568 568" fill="none" xmlns="http://www.w3.org/2000/svg">
    <path d="M346.15 439C313.35 439 286.983 430.017 267.05 412.05C247.117 394.083 237.147 367.733 237.14 333C237.14 301.6 247.807 275.653 269.14 255.16C290.473 234.667 319.107 224.417 355.04 224.41C364.94 224.41 372.853 225.26 378.78 226.96V131.96C378.717 131.552 378.751 131.134 378.88 130.741C379.008 130.349 379.227 129.992 379.52 129.7C379.812 129.407 380.169 129.188 380.561 129.06C380.954 128.931 381.372 128.897 381.78 128.96H430.15C430.497 128.91 430.85 128.941 431.182 129.051C431.515 129.162 431.817 129.348 432.064 129.596C432.312 129.843 432.498 130.145 432.609 130.478C432.719 130.81 432.75 131.163 432.7 131.51V387.26C432.7 392.06 433.123 401.67 433.97 416.09C434.069 416.51 434.081 416.946 434.004 417.37C433.928 417.795 433.765 418.199 433.526 418.558C433.287 418.917 432.977 419.224 432.614 419.458C432.252 419.692 431.846 419.849 431.42 419.92C405.14 432.64 376.717 439 346.15 439Z" stroke="white" stroke-width="12" stroke-linecap="round" stroke-linejoin="round"/>
    <path d="M378.81 394.91V266.36C372.59 263.26 364.39 261.71 354.21 261.71C335.543 261.71 320.563 267.71 309.27 279.71C297.977 291.71 292.31 308.753 292.27 330.84C292.27 354.007 297.937 371.25 309.27 382.57C320.603 393.89 334.883 399.557 352.11 399.57C363.69 399.563 372.59 398.01 378.81 394.91Z" stroke="white" stroke-width="12" stroke-linecap="round" stroke-linejoin="round"/>
    <path d="M283.96 567.42C440.511 567.42 567.42 440.511 567.42 283.96C567.42 127.409 440.511 0.5 283.96 0.5C127.409 0.5 0.5 127.409 0.5 283.96C0.5 440.511 127.409 567.42 283.96 567.42Z" stroke="white" stroke-width="12" stroke-linecap="round" stroke-linejoin="round"/>
    <path d="M187.6 155.67V430.94C187.6 433.487 186.463 434.763 184.19 434.77H137.54C134.993 434.77 133.717 433.493 133.71 430.94V155.67C133.71 153.403 134.987 152.267 137.54 152.26H184.19C186.463 152.26 187.6 153.397 187.6 155.67Z" stroke="white" stroke-width="12" stroke-linecap="round" stroke-linejoin="round"/>
</svg>
