<svg viewBox="0 0 568 568" fill="none" xmlns="http://www.w3.org/2000/svg">
    <path d="M391.32 427.75C419.32 427.65 442.143 420.733 459.79 407C477.437 393.267 486.537 373.35 487.09 347.25C486.963 323.65 480.297 305.107 467.09 291.62C453.883 278.133 434.947 266.4 410.28 256.42L395.83 250.23C383.51 245.163 374.51 240.14 368.83 235.16C363.15 230.18 360.327 223.513 360.36 215.16C360.46 207.993 362.957 202.11 367.85 197.51C372.743 192.91 379.46 190.53 388 190.37C396.16 190.29 403.18 192.2 409.06 196.1C414.94 200 420.307 206.333 425.16 215.1L470.16 186.2C460.72 169.68 449.25 157.807 435.75 150.58C422.25 143.353 406.333 139.827 388 140C361.9 140.48 341.347 147.793 326.34 161.94C311.333 176.087 303.667 194.233 303.34 216.38C303.633 239.493 309.967 257.673 322.34 270.92C334.713 284.167 351.487 295.023 372.66 303.49L387.11 309.68C400.443 315.1 410.777 320.467 418.11 325.78C425.443 331.093 429.16 338.523 429.26 348.07C429.12 356.483 425.577 363.297 418.63 368.51C411.683 373.723 402.153 376.407 390.04 376.56C375.973 376.36 364.463 373.027 355.51 366.56C346.334 359.867 338.686 351.302 333.07 341.43L286 368.71C294.44 385.803 307.393 399.823 324.86 410.77C342.327 421.717 364.48 427.377 391.32 427.75Z" stroke="white" stroke-width="12" stroke-linecap="round" stroke-linejoin="round"/>
    <path d="M283.96 567.42C440.511 567.42 567.42 440.511 567.42 283.96C567.42 127.409 440.511 0.5 283.96 0.5C127.409 0.5 0.5 127.409 0.5 283.96C0.5 440.511 127.409 567.42 283.96 567.42Z" stroke="white" stroke-width="12" stroke-linecap="round" stroke-linejoin="round"/>
    <path d="M167.35 427.75C193.35 427.863 214.13 420.827 229.69 406.64C245.25 392.453 253.23 370.453 253.63 340.64V143.31H195.83V339.82C195.73 353.973 192.943 363.64 187.47 368.82C181.997 374 174.463 376.44 164.87 376.14C155.217 375.913 147.683 372.973 142.27 367.32C136.442 361.087 131.542 354.049 127.72 346.42L80.6499 374.91C87.3166 389.75 97.6899 402.167 111.77 412.16C125.85 422.153 144.377 427.35 167.35 427.75Z" stroke="white" stroke-width="12" stroke-linecap="round" stroke-linejoin="round"/>
</svg>
