<svg viewBox="0 0 568 568" fill="none" xmlns="http://www.w3.org/2000/svg">
    <path d="M283.96 567.42C440.511 567.42 567.42 440.511 567.42 283.96C567.42 127.409 440.511 0.5 283.96 0.5C127.409 0.5 0.5 127.409 0.5 283.96C0.5 440.511 127.409 567.42 283.96 567.42Z" stroke="white" stroke-width="12" stroke-miterlimit="10"/>
    <path d="M146.055 131.47C107.536 166.051 83.4583 213.685 78.5611 264.996C78.3886 266.886 78.2396 268.762 78.1298 270.481C77.9811 272.054 77.9601 273.636 78.0671 275.212C78.198 276.468 78.4608 277.707 78.8513 278.908C79.0136 279.636 79.3682 280.307 79.8787 280.854C80.466 281.371 81.1755 281.732 81.9413 281.904C82.6718 282.079 83.4397 282.013 84.1294 281.717C84.7411 281.437 85.1882 280.939 86.2077 279.757C87.2273 278.574 88.8036 276.644 93.5955 271.602C98.3873 266.56 106.442 258.234 113.877 251.122C121.311 244.01 128.166 238.003 135.224 232.392C142.283 226.782 149.506 221.499 157.184 216.34C164.862 211.181 173.034 206.068 178.806 202.598C184.578 199.128 187.966 197.26 191.872 195.221C195.777 193.183 200.208 190.973 204.122 189.098C208.035 187.222 211.431 185.666 215.321 183.97C219.211 182.273 223.611 180.421 227.916 178.717C232.222 177.013 236.394 175.441 241.1 173.815C245.805 172.189 250.982 170.508 255.569 169.146C260.157 167.785 264.134 166.633 266.659 165.995C269.184 165.357 270.259 165.217 271.082 164.75C271.896 164.312 272.504 163.574 272.776 162.696C273.075 161.809 273.075 160.851 272.776 159.965C272.486 159.186 271.89 158.821 270.094 157.778C268.298 156.735 265.287 155.07 261.961 153.304C258.636 151.538 254.989 149.678 249.938 147.297C244.888 144.916 238.41 142.013 231.712 139.321C225.015 136.629 218.113 134.108 212.506 132.178C206.898 130.248 202.671 128.809 197.048 127.237C191.425 125.665 184.562 123.945 179.496 122.693C174.43 121.44 171.198 120.662 168.759 120.28C166.861 119.932 164.917 119.908 163.011 120.21C161.361 120.473 159.762 120.982 158.266 121.72C156.854 122.428 155.709 123.323 146.055 131.47Z" stroke="white" stroke-width="12" stroke-miterlimit="10"/>
    <path d="M348.235 87.9815C299.194 72.1139 246.013 75.2512 199.16 96.776C197.441 97.557 195.737 98.3927 194.189 99.119C192.754 99.7874 191.375 100.571 190.066 101.462C189.049 102.217 188.113 103.075 187.273 104.024C186.722 104.526 186.316 105.168 186.098 105.883C185.935 106.661 185.975 107.468 186.215 108.226C186.429 108.938 186.862 109.564 187.452 110.014C188.004 110.405 188.65 110.546 190.183 110.795C191.715 111.045 194.134 111.491 200.91 113.084C207.686 114.677 218.803 117.434 228.682 120.269C238.562 123.105 247.104 126.026 255.482 129.282C263.86 132.539 271.998 136.132 280.283 140.17C288.568 144.208 297.031 148.683 302.905 151.885C308.778 155.088 312.061 157.103 315.764 159.454C319.467 161.805 323.543 164.515 327.145 166.944C330.747 169.373 333.742 171.528 337.142 174.036C340.541 176.543 344.322 179.401 347.931 182.252C351.541 185.103 354.987 187.946 358.729 191.187C362.471 194.428 366.508 198.052 369.978 201.301C373.448 204.55 376.404 207.432 378.209 209.283C380.013 211.134 380.69 211.986 381.484 212.478C381.871 212.719 382.302 212.881 382.752 212.955C383.202 213.028 383.662 213.012 384.105 212.907C385.006 212.711 385.822 212.236 386.439 211.548C386.937 210.924 386.991 210.205 386.999 208.135C387.007 206.066 386.96 202.621 386.836 198.872C386.711 195.123 386.525 191.062 386.058 185.485C385.591 179.909 384.969 172.926 384.02 165.811C383.071 158.696 381.733 151.456 380.643 145.645C379.554 139.834 378.644 135.492 377.228 129.845C375.813 124.198 373.891 117.426 372.46 112.428C371.028 107.429 370.126 104.25 369.223 101.962C368.036 98.5551 365.774 95.6295 362.782 93.6284C361.46 92.7536 360.083 92.2147 348.235 87.9815Z" stroke="white" stroke-width="12" stroke-miterlimit="10"/>
    <path d="M486.602 241.598C475.747 190.85 446.389 146.025 404.308 115.948C402.749 114.843 401.19 113.777 399.764 112.813C398.471 111.897 397.107 111.084 395.687 110.384C394.527 109.86 393.314 109.463 392.07 109.2C391.362 108.97 390.605 108.938 389.88 109.106C389.134 109.35 388.465 109.785 387.939 110.368C387.425 110.911 387.099 111.606 387.011 112.351C386.949 113.025 387.151 113.659 387.681 115.133C388.211 116.606 389.061 118.926 391.08 125.634C393.099 132.343 396.303 143.448 398.789 153.471C401.276 163.495 403.053 172.444 404.433 181.371C405.813 190.297 406.772 199.208 407.442 208.471C408.112 217.734 408.479 227.35 408.627 234.098C408.775 240.846 408.705 244.709 408.526 249.121C408.346 253.534 408.066 258.471 407.746 262.805C407.426 267.139 407.091 270.853 406.624 275.077C406.156 279.302 405.626 284.066 404.932 288.667C404.238 293.267 403.552 297.679 402.593 302.57C401.635 307.46 400.551 312.758 399.475 317.46C398.4 322.162 397.441 326.112 396.739 328.635C396.038 331.159 395.648 332.154 395.625 333.095C395.597 334.019 395.933 334.918 396.56 335.595C397.172 336.295 397.992 336.779 398.899 336.974C399.678 337.099 400.333 336.786 402.134 335.751C403.934 334.717 406.873 332.954 410.053 330.971C413.234 328.988 416.664 326.762 421.247 323.588C425.831 320.414 431.553 316.276 437.22 311.833C442.887 307.389 448.492 302.64 452.958 298.776C457.425 294.913 460.753 291.919 464.908 287.867C469.063 283.816 473.974 278.722 477.575 274.968C481.177 271.214 483.469 268.816 485.004 266.896C487.353 264.148 488.748 260.707 488.98 257.092C489.081 255.501 488.878 254.051 486.602 241.598Z" stroke="white" stroke-width="12" stroke-miterlimit="10"/>
    <path d="M423.295 438.444C461.614 403.653 485.568 355.731 490.442 304.108C490.613 302.205 490.754 300.319 490.871 298.581C491.019 297.001 491.04 295.412 490.933 293.829C490.8 292.563 490.538 291.315 490.153 290.103C489.993 289.372 489.64 288.699 489.131 288.153C488.552 287.626 487.844 287.261 487.079 287.096C486.356 286.922 485.596 286.985 484.911 287.276C484.294 287.558 483.85 288.059 482.843 289.249C481.837 290.439 480.261 292.381 475.487 297.453C470.712 302.526 462.739 310.887 455.343 318.058C447.948 325.229 441.121 331.249 434.116 336.901C427.11 342.553 419.917 347.861 412.272 353.059C404.626 358.257 396.513 363.385 390.771 366.884C385.029 370.383 381.659 372.254 377.774 374.297C373.889 376.341 369.473 378.572 365.588 380.466C361.703 382.361 358.317 383.911 354.44 385.625C350.563 387.34 346.194 389.187 341.919 390.909C337.644 392.632 333.454 394.205 328.781 395.841C324.108 397.477 318.944 399.168 314.388 400.577C309.832 401.987 305.837 403.106 303.31 403.771C300.782 404.437 299.729 404.554 298.91 405.024C298.506 405.24 298.149 405.534 297.858 405.888C297.568 406.243 297.35 406.651 297.217 407.091C296.928 407.981 296.928 408.94 297.217 409.831C297.513 410.613 298.098 410.989 299.893 412.03C301.687 413.072 304.675 414.763 307.983 416.54C311.29 418.317 314.91 420.188 319.942 422.583C324.974 424.979 331.402 427.899 338.073 430.607C344.743 433.316 351.632 435.813 357.202 437.77C362.772 439.727 367.031 441.144 372.586 442.718C378.141 444.291 385.006 446.029 390.046 447.29C395.085 448.55 398.292 449.341 400.718 449.717C404.263 450.382 407.928 449.868 411.156 448.253C412.553 447.54 413.699 446.632 423.295 438.444Z" stroke="white" stroke-width="12" stroke-miterlimit="10"/>
    <path d="M220.952 482.013C270.236 497.881 323.684 494.754 370.775 473.245C372.502 472.465 374.207 471.622 375.763 470.903C377.204 470.234 378.59 469.451 379.906 468.561C380.931 467.804 381.874 466.943 382.721 465.992C383.273 465.491 383.679 464.848 383.894 464.134C384.066 463.358 384.028 462.549 383.784 461.792C383.57 461.076 383.131 460.446 382.533 459.996C381.986 459.606 381.329 459.473 379.789 459.216C378.249 458.958 375.825 458.521 369.015 456.936C362.206 455.351 351.033 452.587 341.096 449.753C331.159 446.919 322.567 443.999 314.162 440.751C305.757 437.503 297.579 433.904 289.245 429.868C280.911 425.831 272.412 421.358 266.509 418.157C260.606 414.956 257.299 412.934 253.578 410.584C249.856 408.234 245.759 405.532 242.139 403.096C238.52 400.661 235.517 398.475 232.109 395.984C228.7 393.493 224.892 390.613 221.257 387.763C217.621 384.913 214.165 382.071 210.413 378.839C206.66 375.607 202.594 371.976 199.1 368.69C195.605 365.403 192.649 362.569 190.828 360.71C189.006 358.852 188.334 358.017 187.544 357.525C186.757 357.04 185.811 356.883 184.909 357.088C184.002 357.283 183.18 357.762 182.564 358.454C182.063 359.079 182.009 359.789 182.001 361.866C181.993 363.943 182.04 367.37 182.157 371.125C182.274 374.881 182.478 378.933 182.939 384.499C183.4 390.066 184.088 397.085 185.081 404.213C186.074 411.341 187.372 418.563 188.474 424.372C189.577 430.18 190.476 434.568 191.899 440.166C193.322 445.764 195.261 452.587 196.691 457.584C198.122 462.581 199.037 465.75 199.944 468.046C200.59 469.856 201.537 471.545 202.743 473.042C203.8 474.328 205.041 475.451 206.425 476.376C207.7 477.266 209.052 477.805 220.952 482.013Z" stroke="white" stroke-width="12" stroke-miterlimit="10"/>
    <path d="M82.4306 328.395C93.2835 379.157 122.634 423.994 164.705 454.078C166.264 455.176 167.822 456.25 169.248 457.214C170.538 458.133 171.898 458.948 173.316 459.652C174.48 460.156 175.691 460.542 176.932 460.804C177.643 461.032 178.402 461.062 179.129 460.89C179.871 460.649 180.538 460.217 181.062 459.636C181.574 459.092 181.899 458.397 181.989 457.653C182.051 456.979 181.849 456.344 181.319 454.87C180.789 453.396 179.947 451.068 177.921 444.359C175.895 437.649 172.708 426.542 170.222 416.516C167.736 406.491 165.952 397.539 164.58 388.611C163.209 379.683 162.243 370.778 161.565 361.513C160.887 352.248 160.536 342.622 160.388 335.881C160.24 329.14 160.31 325.26 160.489 320.855C160.668 316.449 160.941 311.495 161.269 307.161C161.596 302.826 161.923 299.11 162.383 294.885C162.843 290.661 163.427 285.926 164.082 281.341C164.736 276.755 165.469 272.326 166.419 267.443C167.37 262.559 168.461 257.253 169.536 252.55C170.612 247.846 171.617 243.872 172.311 241.364C173.004 238.856 173.402 237.844 173.433 236.912C173.459 235.985 173.123 235.085 172.498 234.403C171.881 233.709 171.063 233.227 170.16 233.024C169.381 232.906 168.718 233.212 166.926 234.247C165.134 235.281 162.188 237.045 159.001 239.036C155.814 241.027 152.393 243.237 147.818 246.412C143.244 249.587 137.509 253.725 131.844 258.17C126.178 262.614 120.513 267.357 116.04 271.229C111.567 275.101 108.248 278.088 104.094 282.132C99.9406 286.177 95.0391 291.28 91.3999 295.034C87.7607 298.789 85.5165 301.188 83.9813 303.108C82.7326 304.576 81.7441 306.249 81.0591 308.054C80.4677 309.615 80.1131 311.256 80.0071 312.922C79.9525 314.498 80.1629 315.94 82.4306 328.395Z" stroke="white" stroke-width="12" stroke-miterlimit="10"/>
    <path d="M284.457 192.034C291.884 190.331 295.165 189.631 297.659 189.289C301.599 188.522 305.683 189.293 309.069 191.443C311.345 192.718 314.314 194.647 320.136 199.001C325.958 203.355 334.624 210.127 343.431 217.911C351.536 225.087 359.751 233.119 365.175 238.477C370.373 244.052 372.618 246.532 374.169 248.515C375.429 250.029 376.427 251.742 377.122 253.584C377.745 255.475 378.04 257.457 377.995 259.447C378.034 262.052 377.839 265.582 376.974 272.789C376.109 279.997 374.566 290.883 372.205 302.336C370.03 312.926 367.162 324.037 365.191 331.408C362.946 338.678 361.917 341.858 360.966 344.191C359.656 347.974 356.946 351.114 353.391 352.969C351.147 354.307 347.99 355.901 341.295 358.754C334.601 361.608 324.391 365.752 313.239 369.422C302.928 372.851 291.822 375.93 284.465 377.975H284.512C277.077 379.678 273.803 380.378 271.302 380.72C267.375 381.472 263.309 380.696 259.939 378.551C257.655 377.283 254.693 375.347 248.872 370.993C243.05 366.639 234.368 359.89 225.577 352.114C217.464 344.945 209.257 336.905 203.825 331.548C198.634 325.981 196.382 323.501 194.839 321.51C193.579 319.997 192.578 318.287 191.877 316.448C191.254 314.555 190.959 312.57 191.005 310.578C190.966 307.973 191.168 304.443 192.033 297.235C192.898 290.028 194.441 279.15 196.803 267.689C198.977 257.091 201.845 245.98 203.817 238.617C206.054 231.339 207.09 228.159 208.041 225.834C209.339 222.044 212.053 218.899 215.617 217.055C217.853 215.718 221.018 214.124 227.704 211.27C234.391 208.417 244.616 204.273 255.761 200.595C266.064 197.174 277.17 194.087 284.535 192.081" stroke="white" stroke-width="12" stroke-miterlimit="10"/>
</svg>
