<svg viewBox="0 0 568 568" fill="none" xmlns="http://www.w3.org/2000/svg">
    <path d="M283.96 567.42C440.511 567.42 567.42 440.511 567.42 283.96C567.42 127.409 440.511 0.5 283.96 0.5C127.409 0.5 0.5 127.409 0.5 283.96C0.5 440.511 127.409 567.42 283.96 567.42Z" stroke="white" stroke-width="12" stroke-linecap="round" stroke-linejoin="round"/>
    <path d="M336.09 394.73H378.61V428.31C378.61 456.51 347.28 473.41 323.71 457.92L149.2 343.18C106.63 315.18 106.63 252.75 149.2 224.75L323.71 110C347.28 94.51 378.61 111.41 378.61 139.61V173.2H336.09V152.76L172.56 260.28C168.636 262.861 165.415 266.377 163.186 270.511C160.957 274.645 159.79 279.268 159.79 283.965C159.79 288.662 160.957 293.285 163.186 297.419C165.415 301.553 168.636 305.069 172.56 307.65L336.09 415.17V394.73Z" stroke="white" stroke-width="12" stroke-linecap="round" stroke-linejoin="round"/>
</svg>
