<svg viewBox="0 0 568 568" fill="none" xmlns="http://www.w3.org/2000/svg">
    <path d="M162.27 137.39C152.01 137.583 143.913 140.66 137.98 146.62C132.047 152.58 129.12 160.267 129.2 169.68C129.14 178.713 132.05 186.227 137.93 192.22C143.81 198.213 151.787 201.323 161.86 201.55C172.32 201.317 180.553 198.207 186.56 192.22C192.567 186.233 195.633 178.72 195.76 169.68C195.447 160.26 192.347 152.573 186.46 146.62C180.573 140.667 172.51 137.59 162.27 137.39Z" stroke-width="12" stroke="white" stroke-linecap="round" stroke-linejoin="round"/>
    <path d="M246.63 430.54H309.15V312.41C309.145 309.482 309.356 306.557 309.78 303.66C310.095 301.199 310.727 298.789 311.66 296.49C313.869 290.164 317.7 284.53 322.77 280.15C328.103 275.383 335.16 272.87 343.94 272.61C355.373 272.81 363.633 276.91 368.72 284.91C373.807 292.91 376.307 303.61 376.22 317.01V430.54H438.73V309.05C438.31 279.277 431.45 257.337 418.15 243.23C404.85 229.123 387.66 222.123 366.58 222.23C349.613 222.77 335.87 226.507 325.35 233.44C314.83 240.373 307.497 247.283 303.35 254.17H302.12L299.24 226.28H245C245.98 244.24 246.537 265.96 246.67 291.44L246.63 430.54Z" stroke-width="12" stroke="white" stroke-linecap="round" stroke-linejoin="round"/>
    <path d="M283.96 567.42C440.511 567.42 567.42 440.511 567.42 283.96C567.42 127.409 440.511 0.5 283.96 0.5C127.409 0.5 0.5 127.409 0.5 283.96C0.5 440.511 127.409 567.42 283.96 567.42Z" stroke-width="12" stroke="white" stroke-linecap="round" stroke-linejoin="round"/>
    <path d="M193.73 226.29H131.22V430.54H193.73V226.29Z" stroke-width="12" stroke="white" stroke-linecap="round" stroke-linejoin="round"/>
</svg>
