<svg viewBox="0 0 568 568" fill="none" xmlns="http://www.w3.org/2000/svg">
    <path d="M444.88 142.23H123.05C107.393 142.23 94.7002 154.923 94.7002 170.58V397.35C94.7002 413.007 107.393 425.7 123.05 425.7H444.88C460.537 425.7 473.23 413.007 473.23 397.35V170.58C473.23 154.923 460.537 142.23 444.88 142.23Z" stroke="white" stroke-width="12" stroke-linecap="round" stroke-linejoin="round"/>
    <path d="M396.73 206.7C397.499 205.834 398.438 205.135 399.487 204.645C400.537 204.155 401.676 203.884 402.833 203.85C403.991 203.816 405.144 204.019 406.22 204.446C407.297 204.874 408.275 205.517 409.094 206.336C409.913 207.155 410.556 208.133 410.984 209.21C411.411 210.286 411.614 211.439 411.58 212.597C411.546 213.754 411.275 214.893 410.785 215.943C410.295 216.992 409.596 217.931 408.73 218.7" stroke="white" stroke-width="12" stroke-linecap="round" stroke-linejoin="round"/>
    <path d="M396.73 206.7L289.98 313.45" stroke="white" stroke-width="12" stroke-linecap="round" stroke-linejoin="round"/>
    <path d="M408.75 218.73L349.53 277.95" stroke="white" stroke-width="12" stroke-linecap="round" stroke-linejoin="round"/>
    <path d="M413.73 378.23C414.499 379.096 415.438 379.795 416.487 380.285C417.537 380.775 418.676 381.046 419.833 381.08C420.991 381.114 422.144 380.911 423.22 380.484C424.297 380.056 425.275 379.413 426.094 378.594C426.913 377.775 427.556 376.797 427.984 375.72C428.411 374.644 428.614 373.491 428.58 372.333C428.546 371.176 428.275 370.037 427.785 368.987C427.295 367.938 426.596 366.999 425.73 366.23" stroke="white" stroke-width="12" stroke-linecap="round" stroke-linejoin="round"/>
    <path d="M425.76 366.21L349.53 289.98" stroke="white" stroke-width="12" stroke-linecap="round" stroke-linejoin="round"/>
    <path d="M413.73 378.23L337.5 302" stroke="white" stroke-width="12" stroke-linecap="round" stroke-linejoin="round"/>
    <path d="M349.53 290C347.945 288.406 347.055 286.248 347.055 284C347.055 281.752 347.945 279.594 349.53 278" stroke="white" stroke-width="12" stroke-linecap="round" stroke-linejoin="round"/>
    <path d="M325.48 302L289.98 337.5" stroke="white" stroke-width="12" stroke-linecap="round" stroke-linejoin="round"/>
    <path d="M337.5 302C335.907 300.412 333.749 299.521 331.5 299.521C329.251 299.521 327.093 300.412 325.5 302" stroke="white" stroke-width="12" stroke-linecap="round" stroke-linejoin="round"/>
    <path d="M290 313.45C288.406 315.035 286.248 315.925 284 315.925C281.752 315.925 279.594 315.035 278 313.45" stroke="white" stroke-width="12" stroke-linecap="round" stroke-linejoin="round"/>
    <path d="M242.45 302L277.95 337.5" stroke="white" stroke-width="12" stroke-linecap="round" stroke-linejoin="round"/>
    <path d="M171.2 206.7L277.95 313.45" stroke="white" stroke-width="12" stroke-linecap="round" stroke-linejoin="round"/>
    <path d="M290 337.5C288.408 339.09 286.25 339.983 284 339.983C281.75 339.983 279.592 339.09 278 337.5" stroke="white" stroke-width="12" stroke-linecap="round" stroke-linejoin="round"/>
    <path d="M171.2 206.7C170.431 205.834 169.492 205.135 168.443 204.645C167.393 204.155 166.255 203.884 165.097 203.85C163.939 203.816 162.786 204.019 161.71 204.446C160.633 204.874 159.655 205.517 158.836 206.336C158.017 207.155 157.374 208.133 156.947 209.21C156.519 210.286 156.316 211.439 156.35 212.597C156.384 213.754 156.655 214.893 157.145 215.943C157.635 216.992 158.334 217.931 159.2 218.7" stroke="white" stroke-width="12" stroke-linecap="round" stroke-linejoin="round"/>
    <path d="M159.18 218.73L218.4 277.95" stroke="white" stroke-width="12" stroke-linecap="round" stroke-linejoin="round"/>
    <path d="M159.18 349.2C158.314 349.969 157.615 350.908 157.125 351.957C156.635 353.007 156.364 354.146 156.33 355.303C156.296 356.461 156.499 357.614 156.927 358.69C157.354 359.767 157.997 360.745 158.816 361.564C159.635 362.383 160.613 363.026 161.69 363.454C162.766 363.881 163.919 364.084 165.077 364.05C166.235 364.016 167.373 363.745 168.423 363.255C169.472 362.765 170.411 362.066 171.18 361.2" stroke="white" stroke-width="12" stroke-linecap="round" stroke-linejoin="round"/>
    <path d="M159.18 349.2L218.4 289.98" stroke="white" stroke-width="12" stroke-linecap="round" stroke-linejoin="round"/>
    <path d="M171.2 361.23L230.42 302" stroke="white" stroke-width="12" stroke-linecap="round" stroke-linejoin="round"/>
    <path d="M230.42 302C232.014 300.415 234.171 299.525 236.42 299.525C238.668 299.525 240.825 300.415 242.42 302" stroke="white" stroke-width="12" stroke-linecap="round" stroke-linejoin="round"/>
    <path d="M218.4 290C219.985 288.406 220.875 286.248 220.875 284C220.875 281.752 219.985 279.594 218.4 278" stroke="white" stroke-width="12" stroke-linecap="round" stroke-linejoin="round"/>
    <path d="M283.96 567.42C440.511 567.42 567.42 440.511 567.42 283.96C567.42 127.409 440.511 0.5 283.96 0.5C127.409 0.5 0.5 127.409 0.5 283.96C0.5 440.511 127.409 567.42 283.96 567.42Z" stroke="white" stroke-width="12" stroke-linecap="round" stroke-linejoin="round"/>
</svg>
