<svg viewBox="0 0 568 568" fill="none" xmlns="http://www.w3.org/2000/svg">
    <path d="M151.69 180.9V285.22C155.637 285.793 164.823 286.08 179.25 286.08C198.197 286.08 213.53 281.91 225.25 273.57C236.97 265.23 242.84 251.587 242.86 232.64C242.86 215.973 237.697 203.1 227.37 194.02C217.043 184.94 202.12 180.417 182.6 180.45C177.8 180.45 173.07 180.523 168.41 180.67C163.74 180.82 159.93 180.9 156.95 180.9H151.69Z" stroke="white" stroke-width="12" stroke-linecap="round" stroke-linejoin="round"/>
    <path d="M454 265.72C438.153 255.82 421.607 250.87 404.36 250.87C394.46 250.87 387.177 252.707 382.51 256.38C377.843 260.053 375.51 264.437 375.51 269.53C375.51 272.049 376.039 274.539 377.062 276.84C378.086 279.142 379.58 281.203 381.45 282.89C385.41 286.723 393.743 291.177 406.45 296.25C429.897 305.29 446.36 314.837 455.84 324.89C465.32 334.943 470.057 347.88 470.05 363.7C470.05 382.933 462.77 398.413 448.21 410.14C433.65 421.867 413.947 427.737 389.1 427.75C364.207 427.75 343.85 423.223 328.03 414.17C326.33 413.623 325.48 412.213 325.48 409.94V370.49C325.43 370.041 325.504 369.587 325.692 369.177C325.881 368.766 326.177 368.415 326.55 368.16C326.832 367.95 327.182 367.854 327.532 367.889C327.881 367.924 328.205 368.089 328.44 368.35C346.82 381.93 366.487 388.72 387.44 388.72C397.32 388.72 404.88 386.957 410.12 383.43C415.36 379.903 417.977 375.303 417.97 369.63C418.015 366.824 417.472 364.04 416.377 361.457C415.282 358.874 413.658 356.548 411.61 354.63C407.37 350.53 399.037 346.07 386.61 341.25C363.99 332.49 348.223 323.093 339.31 313.06C330.397 303.027 325.94 290.36 325.94 275.06C325.94 257.507 332.59 242.793 345.89 230.92C359.19 219.047 378.14 213.11 402.74 213.11C425.64 213.11 443.307 216.223 455.74 222.45C457.14 223.3 457.84 225.13 457.84 227.96V263.17C457.82 266.57 456.54 267.42 454 265.72Z" stroke="white" stroke-width="12" stroke-linecap="round" stroke-linejoin="round"/>
    <path d="M283.96 567.42C440.511 567.42 567.42 440.511 567.42 283.96C567.42 127.409 440.511 0.5 283.96 0.5C127.409 0.5 0.5 127.409 0.5 283.96C0.5 440.511 127.409 567.42 283.96 567.42Z" stroke="white" stroke-width="12" stroke-linecap="round" stroke-linejoin="round"/>
    <path d="M97.8101 420.55V144C97.7448 143.591 97.7774 143.173 97.9051 142.779C98.0328 142.385 98.252 142.027 98.5447 141.735C98.8374 141.442 99.1953 141.223 99.5891 141.095C99.9829 140.967 100.401 140.935 100.81 141C122.31 140.447 149.597 140.17 182.67 140.17C221.703 140.17 250.34 148.933 268.58 166.46C286.82 183.987 295.943 205.623 295.95 231.37C295.95 263.317 284.637 287.067 262.01 302.62C239.383 318.173 210.963 325.947 176.75 325.94H151.75V420.13C151.75 422.39 150.62 423.51 148.34 423.51H101.22C98.9534 423.51 97.8167 422.523 97.8101 420.55Z" stroke="white" stroke-width="12" stroke-linecap="round" stroke-linejoin="round"/>
</svg>
