<svg viewBox="0 0 568 568" fill="none" xmlns="http://www.w3.org/2000/svg">
    <path d="M393.09 333.17C396.15 328.58 399.33 322.17 403.19 314.55C407.19 306.68 411.86 297.5 416.03 288.55C420.2 279.6 423.84 271.02 426.71 263.32C429.58 255.62 431.71 248.85 434.4 239.32C437.09 229.79 440.4 217.59 442.29 208.78C443.826 202.08 444.724 195.249 444.97 188.38C445.251 182.272 445.217 176.154 444.87 170.05C444.5 164.98 443.77 161.9 442.26 158.82C440.75 155.74 438.44 152.66 434.45 148.5C429.714 143.552 424.509 139.075 418.91 135.13C413.313 131.466 407.343 128.406 401.1 126C395.437 123.596 389.621 121.572 383.69 119.94C378.188 118.497 372.551 117.629 366.87 117.35C360.229 117.005 353.571 117.145 346.95 117.77C339.74 118.488 332.576 119.607 325.49 121.12" stroke="white" stroke-width="12" stroke-linecap="round" stroke-linejoin="round"/>
    <path d="M387.47 217.82C387.39 219.18 387.29 220.58 387.15 222.05C386.71 226.96 385.98 232.49 385.22 238.58C384.46 244.67 383.68 251.29 383.52 257.41C383.417 263.568 383.838 269.724 384.78 275.81C385.72 282.53 387.13 290.36 387.28 296.89C387.444 302.636 386.514 308.361 384.54 313.76C383.777 315.973 382.827 318.118 381.7 320.17" stroke="white" stroke-width="12" stroke-linecap="round" stroke-linejoin="round"/>
    <path d="M290.15 123.78C302.91 124.48 311.88 128.26 320.02 132.07C327.696 135.472 335.032 139.594 341.93 144.38C348.372 149.194 354.294 154.667 359.6 160.71C365.317 166.831 370.515 173.417 375.14 180.4C378.61 185.972 381.556 191.854 383.94 197.97C384.903 200.238 385.737 202.558 386.44 204.92" stroke="white" stroke-width="12" stroke-linecap="round" stroke-linejoin="round"/>
    <path d="M245.31 344.85C249.13 344.93 252.42 344.85 255.45 345.85C258.901 347.122 261.937 349.315 264.23 352.19C266.761 355.183 268.641 358.67 269.75 362.43C270.87 366.559 271.419 370.822 271.38 375.1C271.38 379.46 271.08 383.77 270.81 390.58C270.54 397.39 270.32 406.7 270.47 416.09C270.62 425.48 271.13 434.96 271.72 443.63C272.095 451.275 272.943 458.89 274.26 466.43C275.189 471.706 277.109 476.759 279.92 481.32C282.387 485.153 285.528 488.507 289.19 491.22C293.019 494.224 297.672 495.989 302.53 496.28C309.906 496.633 317.287 495.696 324.34 493.51C331.87 491.22 338.68 487.63 343.25 483.75C347.82 479.87 350.15 475.75 352.03 470.37C353.91 464.99 355.35 458.37 356.74 449.83C358.13 441.29 359.49 430.73 360.68 420.64C361.87 410.55 362.88 400.91 363.92 392.7C364.96 384.49 366.01 377.7 366.45 372.25C366.89 366.8 366.73 362.58 367.89 358.81C369.144 355.084 371.391 351.772 374.39 349.23C377.01 346.94 379.93 345.39 382.81 343.48" stroke="white" stroke-width="12" stroke-linecap="round" stroke-linejoin="round"/>
    <path d="M191.07 232.79C191.15 236.09 191.37 238.79 191.5 242.65C191.67 247.52 191.71 254.2 191.42 261.16C191.13 268.12 190.49 275.35 189.94 281.8C189.39 288.25 188.94 293.92 189.47 299.17C190.103 304.192 191.45 309.099 193.47 313.74C195.21 318.282 197.635 322.531 200.66 326.34C204.164 330.535 208.42 334.038 213.21 336.67C218.367 339.456 223.872 341.541 229.58 342.87C230.72 343.14 231.84 343.38 232.93 343.58" stroke="white" stroke-width="12" stroke-linecap="round" stroke-linejoin="round"/>
    <path d="M290.15 123.78C263.43 122.34 256.34 123.78 251.61 124.84C247.849 125.528 244.204 126.74 240.78 128.44C236.081 130.808 231.597 133.582 227.38 136.73C222.86 140.133 218.743 144.042 215.11 148.38C211.307 152.873 208.016 157.777 205.3 163C202.575 168.437 200.34 174.106 198.62 179.94C196.71 186.04 194.97 192.65 193.82 198.19C192.762 203.269 192.057 208.414 191.71 213.59C191.63 214.59 191.55 215.73 191.48 216.84" stroke="white" stroke-width="12" stroke-linecap="round" stroke-linejoin="round"/>
    <path d="M370.31 233C372.277 232.335 374.075 231.25 375.58 229.82C376.056 229.279 376.41 228.642 376.618 227.951C376.825 227.261 376.88 226.534 376.78 225.82C376.729 225.222 376.516 224.648 376.164 224.162C375.811 223.675 375.333 223.294 374.78 223.06C372.934 222.227 370.924 221.82 368.9 221.87C366.496 221.883 364.118 222.365 361.9 223.29C360.155 223.976 358.589 225.05 357.32 226.43C356.965 226.781 356.734 227.239 356.661 227.733C356.589 228.227 356.68 228.732 356.92 229.17C357.53 230.358 358.467 231.347 359.62 232.02C361.218 232.997 363.003 233.627 364.86 233.87C366.721 234.037 368.594 233.738 370.31 233V233Z" stroke="white" stroke-width="12" stroke-linecap="round" stroke-linejoin="round"/>
    <path d="M225.78 236.6C226.973 238.007 228.54 239.047 230.3 239.6C232.283 240.055 234.35 239.99 236.3 239.41C238.144 238.896 239.851 237.981 241.3 236.73C242.392 235.84 243.218 234.667 243.69 233.34C243.853 232.845 243.906 232.32 243.846 231.801C243.785 231.283 243.613 230.785 243.34 230.34C242.532 229.235 241.459 228.351 240.22 227.77C238.517 226.876 236.741 226.129 234.91 225.54C233.248 224.932 231.489 224.634 229.72 224.66C228.038 224.781 226.405 225.287 224.95 226.14C223.616 226.805 222.487 227.817 221.68 229.07C221.18 230.07 221.5 230.97 222.32 232.28C223.334 233.826 224.493 235.273 225.78 236.6V236.6Z" stroke="white" stroke-width="12" stroke-linecap="round" stroke-linejoin="round"/>
    <path d="M387.47 217.82C372.98 216.1 366.13 217.18 361.61 218.35C357.09 219.52 354.88 220.8 352.98 222.72C350.774 224.994 349.229 227.825 348.51 230.91C347.466 235.395 347.286 240.038 347.98 244.59C348.938 250.373 350.507 256.038 352.66 261.49C354.88 267.49 357.59 273.84 360.36 279.58C363.13 285.32 365.96 290.43 369.41 296.89C372.86 303.35 376.92 311.15 381.7 320.17" stroke="white" stroke-width="12" stroke-linecap="round" stroke-linejoin="round"/>
    <path d="M202.13 130.26C198.26 129.36 192.57 127.95 185.75 126.54C178.93 125.13 171 123.72 165.39 123.17C159.78 122.62 156.48 122.94 150.68 123.49C143.794 124.021 136.944 124.936 130.16 126.23C124.499 127.429 119.086 129.594 114.16 132.63C108.734 135.726 103.789 139.597 99.48 144.12C95.22 148.79 92.14 154.28 89.48 161.12C86.3861 169.26 84.3071 177.751 83.29 186.4C81.875 197.807 81.8213 209.341 83.13 220.76C84.57 232.91 87.76 245.13 91.13 258.31C94.5 271.49 97.97 285.65 101.81 298.89C105.65 312.13 109.81 324.46 114.13 335.22C117.914 344.77 122.31 354.066 127.29 363.05C131.71 370.94 136.09 377.52 139.91 381.56C143.73 385.6 146.91 387.13 150.48 387.21C154.05 387.29 157.82 385.93 162.34 382.01C166.86 378.09 172.08 371.62 176.34 366.47C180.6 361.32 183.81 357.52 186.99 353.85C190.17 350.18 193.3 346.67 195.16 344.71C197.02 342.75 197.62 342.36 197.94 341.94C198.1 341.736 198.187 341.484 198.187 341.225C198.187 340.966 198.1 340.714 197.94 340.51C197.089 339.362 196.117 338.309 195.04 337.37C192.146 334.63 189.551 331.589 187.3 328.3C184.307 323.675 181.952 318.666 180.3 313.41C178.727 308.334 177.75 303.092 177.39 297.79C177.017 292.923 177.1 288.031 177.64 283.18C178.17 278.34 179.13 273.44 179.56 268.68C179.924 263.321 179.981 257.946 179.73 252.58C179.58 245.86 179.37 237.06 179.31 229.04C179.101 221.043 179.483 213.041 180.45 205.1C181.721 195.695 183.839 186.424 186.78 177.4C189.403 169.556 192.75 161.973 196.78 154.75C199.412 149.931 202.379 145.303 205.66 140.9C206.97 139.081 208.491 137.422 210.19 135.96C210.828 135.471 211.43 134.937 211.99 134.36C212.069 134.291 212.132 134.205 212.175 134.109C212.218 134.014 212.241 133.91 212.241 133.805C212.241 133.7 212.218 133.596 212.175 133.501C212.132 133.405 212.069 133.319 211.99 133.25C211.264 132.606 210.387 132.155 209.44 131.94C208.06 131.53 206 131.15 202.13 130.26Z" stroke="white" stroke-width="12" stroke-linecap="round" stroke-linejoin="round"/>
    <path d="M243.85 360.4C241.945 362.035 240.151 363.796 238.48 365.67C236.84 367.57 235.59 369.52 234.15 371.42C232.585 373.58 230.64 375.436 228.41 376.9C225.399 378.744 222.171 380.208 218.8 381.26C215.49 382.31 212.55 382.84 209.69 383.55C206.83 384.26 204.06 385.14 202.16 385.61C200.26 386.08 199.23 386.14 198.66 386.35C198.09 386.56 197.98 386.92 198.26 387.25C198.54 387.58 199.2 387.89 201.37 388.71C204.789 390.058 208.358 390.988 212 391.48C217.27 392.101 222.598 392.034 227.85 391.28C232.629 390.645 237.256 389.158 241.51 386.89C245.421 384.734 249.038 382.082 252.27 379C254.482 377.02 256.339 374.676 257.76 372.07C258.583 370.541 258.895 368.789 258.65 367.07C258.446 365.316 257.817 363.637 256.82 362.18C255.674 360.518 254.209 359.1 252.51 358.01C251.912 357.571 251.221 357.277 250.491 357.151C249.76 357.024 249.01 357.068 248.3 357.28C246.637 358.037 245.129 359.095 243.85 360.4V360.4Z" stroke="white" stroke-width="12" stroke-linecap="round" stroke-linejoin="round"/>
    <path d="M391.55 356.49C393.73 357.4 396.81 359.32 399.55 360.44C402.14 361.467 404.904 361.983 407.69 361.96C410.79 362.06 414.69 361.96 419.01 361.79C423.397 361.676 427.776 361.342 432.13 360.79C436.07 360.2 439.13 359.28 440.75 358.95C442.37 358.62 442.56 358.89 442.41 359.3C442.26 359.71 441.77 360.3 439.62 361.78C436.417 363.989 433.103 366.032 429.69 367.9C425.662 370.207 421.329 371.937 416.82 373.04C411.756 374.076 406.608 374.652 401.44 374.76C397.193 374.998 392.937 374.998 388.69 374.76C385.957 374.593 383.247 374.158 380.6 373.46C379.01 372.99 378.73 372.6 378.6 371.54C378.408 369.913 378.442 368.268 378.7 366.65C378.945 364.336 379.763 362.119 381.08 360.2C382.498 358.48 384.343 357.163 386.43 356.38C387.237 356.012 388.116 355.831 389.003 355.851C389.889 355.87 390.76 356.088 391.55 356.49V356.49Z" stroke="white" stroke-width="12" stroke-linecap="round" stroke-linejoin="round"/>
    <path d="M386.44 204.92C374.37 203.73 367.74 204.14 362.83 204.92C359.024 205.424 355.328 206.552 351.89 208.26C348.821 209.761 346.097 211.883 343.89 214.49C340.578 218.239 338.098 222.649 336.616 227.427C335.133 232.206 334.681 237.244 335.29 242.21C335.944 248.41 337.286 254.517 339.29 260.42C341.59 267.564 344.284 274.575 347.36 281.42C350.36 288.05 353.44 293.67 356.36 298.9C359.28 304.13 361.91 308.96 364.43 313.67C366.95 318.38 369.31 322.97 371.78 327.6C374.671 333.372 378.375 338.7 382.78 343.42" stroke="white" stroke-width="12" stroke-linecap="round" stroke-linejoin="round"/>
    <path d="M393.09 333.17C390.35 334.56 389.88 333.01 390.24 331.17C390.874 328.988 391.828 326.912 393.07 325.01C394.561 322.529 395.833 319.922 396.87 317.22C398.176 313.609 398.964 309.832 399.21 306C399.36 301.555 399.207 297.104 398.75 292.68C398.4 288.1 398.08 283.5 397.54 278.09C397 272.68 396.21 266.5 396.12 260.36C396.128 253.973 396.576 247.595 397.46 241.27C398.31 234.42 399.46 226.81 399.96 220.93C400.46 215.05 400.51 210.93 399.52 206.1C398.13 200.194 396.01 194.483 393.21 189.1C389.521 181.648 385.332 174.455 380.67 167.57C376.467 161.42 371.732 155.652 366.52 150.33C361.579 145.2 356.322 140.384 350.78 135.91C346.714 132.679 342.405 129.767 337.89 127.2C333.92 124.852 329.775 122.816 325.49 121.11" stroke="white" stroke-width="12" stroke-linecap="round" stroke-linejoin="round"/>
    <path d="M191.07 232.79C197.124 227.875 203.95 223.996 211.27 221.31C217.11 219.04 221.42 217.84 226.02 217.77C230.586 217.726 235.109 218.654 239.29 220.49C242.989 221.991 245.988 224.829 247.69 228.44C249.49 232.26 250.31 237.51 251.17 243.97C252.03 250.43 252.91 258.1 253.22 264.97C253.474 271.042 253.351 277.124 252.85 283.18C252.567 288.186 251.779 293.152 250.5 298C248.907 303.393 246.901 308.655 244.5 313.74C242.11 318.97 239.5 323.9 237.38 329.22C235.432 333.869 233.935 338.695 232.91 343.63" stroke="white" stroke-width="12" stroke-linecap="round" stroke-linejoin="round"/>
    <path d="M191.48 216.8C206.65 208.91 216.76 206.8 224.03 205.95C231.3 205.1 235.71 205.55 240.16 207.15C244.707 208.82 248.897 211.334 252.51 214.56C255.787 217.449 258.293 221.109 259.8 225.21C261.38 229.42 262.24 234.44 263.18 240.49C264.12 246.54 265.18 253.62 265.66 261.16C266.23 268.936 266.096 276.748 265.26 284.5C264.251 293.001 262.172 301.341 259.07 309.32C255.55 318.79 250.28 330.15 245.31 344.85" stroke="white" stroke-width="12" stroke-linecap="round" stroke-linejoin="round"/>
    <path d="M283.96 567.42C440.511 567.42 567.42 440.511 567.42 283.96C567.42 127.409 440.511 0.5 283.96 0.5C127.409 0.5 0.5 127.409 0.5 283.96C0.5 440.511 127.409 567.42 283.96 567.42Z" stroke="white" stroke-width="12" stroke-linecap="round" stroke-linejoin="round"/>
</svg>
