<svg viewBox="0 0 568 568" fill="none" xmlns="http://www.w3.org/2000/svg">
    <path d="M296.16 446C270.32 421.78 271.16 420.41 252.68 412C239.36 405.92 230.11 405.49 226.22 396.88C225.53 395.34 224.44 392.29 227.17 376.09C231.06 352.94 235 349.03 231.89 341.09C230.46 337.44 229.67 338.39 222.44 325.97C217.15 316.88 216.63 314.75 216.77 312.74C217.23 306.16 224.63 301.67 231.89 297.62C258.45 282.78 271.8 280.13 288.6 269.27C300.21 261.75 302.6 252.76 307.5 254.15C313.66 255.88 311.03 268.66 317.89 284.39C324.27 299 339.5 317.64 358.53 320.3C366.91 321.47 383.53 320.58 399.17 313.68C403.84 311.62 409 308.78 411.45 310.85C414.51 313.42 412.57 322.94 407.67 329.75C399.73 340.75 388.54 338.45 384.04 348.65C382.45 352.26 381.4 358.14 384.04 361.88C389.92 370.2 411.45 364.3 419.96 361.88C454.28 352.13 474.9 333.67 528.64 299.51C544.05 289.7 552.54 284.75 555.1 287.22C559.43 291.42 544.44 314.8 531.47 330.69C511.35 355.36 488.1 371.84 473.82 380.78C449.44 396.06 426.07 405.12 418.07 422.36C415.119 428.804 412.594 435.435 410.51 442.21C406.78 454.81 408.67 455.07 405.78 461.11C401.87 469.27 394.98 473.8 381.21 482.84C379.54 483.94 376.96 485.57 374.59 484.73C370.8 483.4 370.08 476.63 369.87 475.28C366.87 456.1 315 420.08 311.28 424.28C309.56 426.21 317.28 437.58 326.4 445.07C335.27 452.4 339.64 451.26 349.08 460.19C353.923 464.711 357.784 470.182 360.42 476.26C362.16 480.34 365.17 487.44 362.31 490.43C359.08 493.81 350.31 490.02 349.08 489.49" stroke="white" stroke-width="12" stroke-miterlimit="10"/>
    <path d="M302.77 241.9C306.21 233.41 304.06 224.9 300.88 215.44C293.478 193.285 282.98 172.287 269.7 153.07C267.7 150.27 234.87 105.14 227.17 109.59C224.74 111 225.74 116.77 226.22 119.99C231.55 155.77 219.16 191.7 214.88 204.1C208.52 222.56 199.1 237.1 183.7 260.8C181.04 264.89 176.96 280.64 171.41 278.8C169.71 278.22 168.13 276.5 164.32 272.65C154.67 262.89 146.57 260.86 145.9 258.95C143.9 253.22 151.75 247.54 160.07 237.21C172.43 221.88 177.44 206.83 180.86 196.58C184.22 186.51 185.62 174.75 188.42 151.22C189.421 141.488 189.755 131.698 189.42 121.92C188.98 108.92 187.61 102.33 182.8 97.35C181.47 95.97 178.8 93.6 173.35 91.68C165.91 89.05 154.74 87.77 129.88 96.4C94.2501 108.78 91.5101 111.53 91.1301 114.4C90.5001 119.15 95.1301 121.93 100.13 128.1C109.37 139.53 110.83 155.1 113.36 185.75C115.7 214.04 117.49 235.69 109.58 238.67C106.85 239.67 104.47 237.95 100.13 235.84C85.6101 228.77 61.0301 223.52 45.3201 233C31.1801 241.54 28.6701 259.33 28.3201 262.3C27.3201 270.77 28.1401 286.09 36.8201 290.65C41.3201 293.01 45.6401 291.29 52.8901 289.7C52.8901 289.7 66.2101 286.79 90.6901 287.81C108.98 288.58 122.11 297.5 139.83 309.55C155.63 320.29 164.69 330.55 179.52 347.35C196.27 366.35 199.2 374.21 200.31 377.59C204.23 389.5 203.79 400.86 206.93 401.22C209.32 401.49 212.13 395.22 213.55 390.82C218.97 374.08 215.39 350.19 202.21 330.34C196.02 321.02 188.43 313.66 190.86 305.77C192.06 301.89 195.25 299.27 196.53 298.21C203.6 292.39 212.63 292.57 215.44 292.54C223.79 292.44 242.11 282.08 278.75 261.35C295.12 252 300 248.68 302.77 241.9Z" stroke="white" stroke-width="12" stroke-miterlimit="10"/>
    <path d="M283.96 567.42C440.511 567.42 567.42 440.511 567.42 283.96C567.42 127.409 440.511 0.5 283.96 0.5C127.409 0.5 0.5 127.409 0.5 283.96C0.5 440.511 127.409 567.42 283.96 567.42Z" stroke="white" stroke-width="12" stroke-miterlimit="10"/>
</svg>
