<svg viewBox="0 0 568 568" fill="none" xmlns="http://www.w3.org/2000/svg">
    <path d="M283.96 567.42C440.511 567.42 567.42 440.511 567.42 283.96C567.42 127.409 440.511 0.5 283.96 0.5C127.409 0.5 0.5 127.409 0.5 283.96C0.5 440.511 127.409 567.42 283.96 567.42Z" stroke="white" stroke-width="12" stroke-linecap="round" stroke-linejoin="round"/>
    <path d="M231.83 173.2H189.32V139.62C189.32 111.42 220.65 94.52 244.21 110.01L418.73 224.75C461.3 252.75 461.3 315.18 418.73 343.18L244.21 457.92C220.65 473.41 189.32 456.51 189.32 428.31V394.73H231.83V415.17L395.37 307.65C399.294 305.069 402.515 301.553 404.744 297.419C406.973 293.285 408.14 288.662 408.14 283.965C408.14 279.268 406.973 274.645 404.744 270.511C402.515 266.377 399.294 262.861 395.37 260.28L231.83 152.76V173.2Z" stroke="white" stroke-width="12" stroke-linecap="round" stroke-linejoin="round"/>
</svg>
