<svg viewBox="0 0 568 568" fill="none" xmlns="http://www.w3.org/2000/svg">
    <path d="M283.96 567.42C440.511 567.42 567.42 440.511 567.42 283.96C567.42 127.409 440.511 0.5 283.96 0.5C127.409 0.5 0.5 127.409 0.5 283.96C0.5 440.511 127.409 567.42 283.96 567.42Z" stroke-width="12" stroke="white" stroke-linecap="round" stroke-linejoin="round"/>
    <path d="M482.45 222C473 240.76 468.26 247 463.57 253.22C458.88 259.44 454.23 265.78 449.57 271.49C444.91 277.2 440.18 282.33 434.32 288.24C426.722 295.94 418.675 303.182 410.22 309.93C402.74 361.21 395.257 412.493 387.77 463.78L230.77 401.26C257.69 394.26 276.12 388.56 290.45 383.14C302.973 378.405 315.109 372.704 326.75 366.09L387.75 463.78C451.85 298.78 467.65 260.57 476.64 237.43C485.63 214.29 487.82 206.22 489.4 197.78C490.98 189.34 492 180.52 491 173.6C490 166.68 487.2 161.68 483.64 155.93C480.08 150.18 475.82 143.7 469.79 138.93C463.76 134.16 456 131 442.23 126.08C428.46 121.16 408.71 114.57 396 110.69C387.723 108.017 379.265 105.945 370.69 104.49C363.84 103.31 355.87 102.06 307.63 107.05" stroke-width="12" stroke="white" stroke-linecap="round" stroke-linejoin="round"/>
    <path d="M452.1 129.7L391 143.2L364.77 103.7" stroke-width="12" stroke="white" stroke-linecap="round" stroke-linejoin="round"/>
    <path d="M337.18 222.97L463.54 253.17L391 143.2L337.18 222.97Z" stroke-width="12" stroke="white" stroke-linecap="round" stroke-linejoin="round"/>
    <path d="M209.14 283.48L326.76 366.55L337.18 222.97L209.14 283.48Z" stroke-width="12" stroke="white" stroke-linecap="round" stroke-linejoin="round"/>
    <path d="M116.78 277.26L209.14 283.48L127.78 403.15L116.78 277.26Z" stroke-width="12" stroke="white" stroke-linecap="round" stroke-linejoin="round"/>
    <path d="M114.87 226.96L116.78 277.26L81.79 311.1" stroke-width="12" stroke="white" stroke-linecap="round" stroke-linejoin="round"/>
    <path d="M141.78 191.39C110.78 229.79 106.13 240.11 100.78 253.95C95.43 267.79 89.26 285.17 84.82 300.2C80.38 315.23 77.63 327.92 76.39 338.28C75.15 348.64 75.39 356.64 77.73 363.45C80.07 370.26 84.36 375.86 90.64 382C98.3644 389.854 107.661 395.988 117.92 400C130.7 405 148.04 408.31 387.77 463.83" stroke-width="12" stroke="white" stroke-linecap="round" stroke-linejoin="round"/>
    <path d="M373.8 129.12C378.01 139.46 375.48 150.5 371.35 159.92C364.73 175.01 352.84 188.53 341.11 199.47C321.56 217.69 297.19 233.22 273.28 244.77C249.37 256.32 221.99 265.77 195.55 269.58C179.76 271.84 161.55 272.58 145.8 267.65C135.87 264.54 126.28 258.89 122.02 248.42C117.76 237.95 120.33 227.04 124.46 217.62C131.08 202.53 143 189 154.7 178.07C174.25 159.84 198.62 144.31 222.53 132.76C246.44 121.21 273.82 111.76 300.27 107.95C316.05 105.7 334.27 104.95 350.01 109.88C359.94 113 369.53 118.65 373.8 129.12Z" stroke="white" stroke-linecap="round" stroke-linejoin="round"/>
</svg>
