<svg viewBox="0 0 568 568" fill="none" xmlns="http://www.w3.org/2000/svg">
    <path d="M195.191 186.52C188.759 192.245 180.772 195.938 172.24 197.13C163.709 198.323 155.015 196.963 147.256 193.221C139.498 189.48 133.023 183.525 128.649 176.109C124.276 168.692 122.2 160.147 122.684 151.553C123.168 142.959 126.19 134.7 131.368 127.821C136.546 120.941 143.648 115.75 151.778 112.901C159.907 110.053 168.699 109.675 177.043 111.816C185.387 113.958 192.909 118.522 198.658 124.932L183.701 134.379L229.983 144.794L240.417 98.6029L228.915 105.872C194.388 61.0011 125.245 65.8622 97.3436 115.122C69.4421 164.381 100.866 226.112 157.142 232.59C146.676 252.107 140.629 273.683 139.429 295.793C138.229 317.903 141.905 340.006 150.197 360.539L134.997 366.665L182.809 386.967C189.589 371.042 196.362 355.117 203.127 339.192L187.894 345.263C179.032 323.323 177.452 299.119 183.388 276.214C189.324 253.309 202.462 232.913 220.868 218.029C239.275 203.144 261.977 194.557 285.633 193.53C309.29 192.504 332.652 199.094 352.279 212.329C371.907 225.564 386.764 244.745 394.665 267.05C402.565 289.354 403.09 313.604 396.164 336.23C389.237 358.855 375.225 378.661 356.189 392.733C337.153 406.804 314.099 414.398 290.42 414.396H122.174V455H294.118" stroke="white" stroke-width="12" stroke-linecap="round" stroke-linejoin="round"/>
    <path d="M454.451 414.183H416.529C401.704 431.296 383.473 445.128 363 454.795H454.506V473L493 434.5L454.506 396L454.451 414.183Z" stroke="white" stroke-width="12" stroke-linecap="round" stroke-linejoin="round"/>
    <path d="M283.96 567.42C440.511 567.42 567.42 440.511 567.42 283.96C567.42 127.409 440.511 0.5 283.96 0.5C127.409 0.5 0.5 127.409 0.5 283.96C0.5 440.511 127.409 567.42 283.96 567.42Z" stroke="white" stroke-width="12" stroke-linecap="round" stroke-linejoin="round"/>
    <path d="M286.677 454.956C311.073 455.548 335.247 450.174 357.121 439.297C378.995 428.419 397.914 412.363 412.251 392.508C426.589 372.654 435.915 349.596 439.429 325.317C442.944 301.037 440.54 276.263 432.426 253.124C424.311 229.985 410.728 209.173 392.845 192.479C374.962 175.784 353.314 163.706 329.762 157.283C306.209 150.86 281.458 150.285 257.635 155.606C233.813 160.926 211.632 171.985 193 187.83" stroke="white" stroke-width="12" stroke-linecap="round" stroke-linejoin="round"/>
</svg>
