<svg viewBox="0 0 568 568" fill="none" xmlns="http://www.w3.org/2000/svg">
    <path d="M419.37 427.54C388.997 427.54 364.58 419.207 346.12 402.54C327.66 385.873 318.427 361.457 318.42 329.29C318.42 300.21 328.307 276.177 348.08 257.19C367.853 238.203 394.373 228.713 427.64 228.72C436.807 228.72 444.14 229.507 449.64 231.08V143.08C449.588 142.707 449.624 142.327 449.744 141.971C449.864 141.614 450.065 141.29 450.332 141.024C450.598 140.759 450.923 140.558 451.28 140.44C451.637 140.321 452.017 140.287 452.39 140.34H497.18C497.501 140.293 497.828 140.321 498.136 140.423C498.444 140.525 498.723 140.698 498.953 140.927C499.182 141.156 499.355 141.436 499.456 141.744C499.558 142.052 499.587 142.379 499.54 142.7V379.62C499.54 384.067 499.933 392.97 500.72 406.33C500.812 406.718 500.822 407.121 500.752 407.514C500.681 407.907 500.53 408.281 500.309 408.613C500.088 408.945 499.8 409.228 499.465 409.444C499.13 409.66 498.754 409.805 498.36 409.87C474 421.65 447.67 427.54 419.37 427.54Z" stroke="white" stroke-width="12" stroke-linecap="round" stroke-linejoin="round"/>
    <path d="M290.71 166.33L215.29 288.88L296.2 419.31C297.78 421.65 297.25 423.09 294.64 423.62H243.94C240.813 423.62 238.72 422.577 237.66 420.49L179.93 320.31H179.52L123 420.49C122.565 421.466 121.845 422.287 120.935 422.845C120.025 423.404 118.967 423.674 117.9 423.62H69.54C69.2206 423.644 68.8996 423.605 68.5956 423.503C68.2917 423.402 68.0111 423.241 67.77 423.03C67.5715 422.821 67.417 422.575 67.3156 422.305C67.2143 422.035 67.1682 421.748 67.18 421.46C67.1839 421.126 67.257 420.796 67.3947 420.491C67.5324 420.187 67.7317 419.914 67.9801 419.69L148.09 292.42L71.09 165.14C70.8541 164.836 70.7106 164.471 70.6769 164.088C70.6432 163.705 70.7207 163.32 70.9 162.98C71.1355 162.631 71.4623 162.352 71.845 162.176C72.2277 162 72.6514 161.932 73.07 161.98H123.36C125.967 161.98 127.667 162.893 128.46 164.72L183.46 263.72H183.87L238.08 164.72C238.583 163.827 239.33 163.095 240.233 162.61C241.136 162.125 242.158 161.907 243.18 161.98H288.75C291.61 162 292.27 163.43 290.71 166.33Z" stroke="white" stroke-width="12" stroke-linecap="round" stroke-linejoin="round"/>
    <path d="M283.96 567.42C440.511 567.42 567.42 440.511 567.42 283.96C567.42 127.409 440.511 0.5 283.96 0.5C127.409 0.5 0.5 127.409 0.5 283.96C0.5 440.511 127.409 567.42 283.96 567.42Z" stroke="white" stroke-width="12" stroke-linecap="round" stroke-linejoin="round"/>
    <path d="M449.62 386.7V267.7C443.86 264.827 436.267 263.39 426.84 263.39C409.573 263.39 395.7 268.953 385.22 280.08C374.74 291.207 369.5 306.977 369.5 327.39C369.5 348.85 374.74 364.82 385.22 375.3C395.7 385.78 408.923 391.013 424.89 391C435.63 391 443.873 389.567 449.62 386.7Z" stroke="white" stroke-width="12" stroke-linecap="round" stroke-linejoin="round"/>
</svg>
